<?xml version="1.0" encoding="utf-8"?>
<!-- Generator: Adobe Illustrator 24.2.1, SVG Export Plug-In . SVG Version: 6.00 Build 0)  -->
<svg version="1.1" id="레이어_1" xmlns="http://www.w3.org/2000/svg" xmlns:xlink="http://www.w3.org/1999/xlink" x="0px"
	 y="0px" viewBox="0 0 110 34" style="enable-background:new 0 0 110 34;background-color:#202020" xml:space="preserve">
<style type="text/css">
	.st0{fill:#E5E5E5;}
	.st1{fill:url(#SVGID_1_);}
	.st2{fill:url(#SVGID_2_);}
	.st3{fill:url(#SVGID_3_);}
	.st4{fill:url(#SVGID_4_);}
	.st5{fill:#E5007D;}
	.st6{fill:url(#SVGID_5_);}
	.st7{fill:url(#SVGID_6_);}
</style>
<g>
	<g>
		<linearGradient id="SVGID_1_" gradientUnits="userSpaceOnUse" x1="69.8521" y1="25.2728" x2="50.0287" y2="5.4494">
			<stop  offset="4.618227e-03" style="stop-color:#E3E2E2"/>
			<stop  offset="1" style="stop-color:#FFFFFF"/>
		</linearGradient>
		<path class="st1" d="M61.1,0.6c-3.1-0.3-6,0.4-7.9,2.1c-1.9,1.6-3,4-3,6.9V22H55V9.6C55,8,55.5,6.8,56.4,6c1-0.9,2.6-1.3,4.6-1.1
			L61.7,5V0.7L61.1,0.6z"/>
		<linearGradient id="SVGID_2_" gradientUnits="userSpaceOnUse" x1="115.5209" y1="28.5322" x2="93.5098" y2="6.521">
			<stop  offset="4.618227e-03" style="stop-color:#E3E2E2"/>
			<stop  offset="0.9991" style="stop-color:#FFFFFF"/>
		</linearGradient>
		<path class="st2" d="M98.2,0.4c-6.3,0-11.4,4.9-11.4,10.8S92,22.1,98.2,22.1s11.4-4.9,11.4-10.8S104.5,0.4,98.2,0.4z M98.2,17.4
			c-3.6,0-6.4-2.7-6.4-6.1s2.9-6.1,6.4-6.1s6.4,2.7,6.4,6.1S101.8,17.4,98.2,17.4z"/>
		<linearGradient id="SVGID_3_" gradientUnits="userSpaceOnUse" x1="52.7702" y1="27.2657" x2="31.6185" y2="6.114">
			<stop  offset="4.618227e-03" style="stop-color:#E3E2E2"/>
			<stop  offset="1" style="stop-color:#FFFFFF"/>
		</linearGradient>
		<path class="st3" d="M41.2,15.7c-1.2,1-2.7,1.7-4.4,1.7c-1.7,0-3.2-0.6-4.3-1.6L48,9.6c0,0,0,0,0,0l0,0c-0.9-5.2-5.6-9.1-11.3-9.1
			c-6.3,0-11.4,4.9-11.4,10.8c0,6,5.1,10.8,11.4,10.8c3,0,5.8-1.1,7.8-3L41.2,15.7z M30.3,11.2c0-3.4,2.9-6.1,6.4-6.1
			c2,0,3.8,0.9,5,2.2l-11.4,4.4C30.3,11.6,30.3,11.4,30.3,11.2z"/>
		<linearGradient id="SVGID_4_" gradientUnits="userSpaceOnUse" x1="28.946" y1="28.6007" x2="6.0758" y2="5.7305">
			<stop  offset="4.618227e-03" style="stop-color:#E3E2E2"/>
			<stop  offset="1" style="stop-color:#FFFFFF"/>
		</linearGradient>
		<path class="st4" d="M23,11.3c0,0,0-0.1,0-0.1c0-6-5.1-10.8-11.4-10.8C5.3,0.4,0.2,5.3,0.2,11.2s5.1,10.8,11.4,10.8l6.6-0.1H23
			V11.5C23,11.5,23,11.4,23,11.3z M18,17.4h-6.4c-3.6,0-6.4-2.7-6.4-6.1c0-3.4,2.9-6.1,6.4-6.1c3.6,0,6.4,2.7,6.4,6.1V17.4z"/>
		<path class="st5" d="M73.5,5.1c2.3,0,4.1,1.2,4.7,1.9c0.8,0.9,2.2,2.6,1.6,5.8c-0.3,1.4-1.2,2.6-2.2,3.4l3.4,3.4
			c1.7-1.5,3.3-3.8,3.8-6.4c0.3-1.7,0.6-4.5-1.9-8.2c-1.6-2.3-4.7-3.8-6-4.2c-2.8-0.8-6.1-0.2-6.6-0.1c-2.2,0.6-3.9,1.7-5.1,2.9
			l3.5,3.5C69.6,6.1,71.1,5.2,73.5,5.1z"/>
		<linearGradient id="SVGID_5_" gradientUnits="userSpaceOnUse" x1="74.6228" y1="21.9853" x2="61.6908" y2="27.9807">
			<stop  offset="0.2601" style="stop-color:#E3E2E2"/>
			<stop  offset="1" style="stop-color:#FFFFFF"/>
		</linearGradient>
		<path class="st6" d="M81,19.7l-3.4-3.4c-0.5,0.4-0.9,0.8-1.3,1c-1.2,0.8-3,1.5-5.6,2.5l-4.6,1.8L65.1,22c-2.5,0.9-6.7,2.5-9,5.4
			c-1.8,2.4-2.2,5.3-2.2,6.4l0,0.1h4.9l0-0.1c0.1-0.8,0.3-2.4,1.3-3.7c1.4-1.8,4.9-3.1,6.8-3.8l1.5-0.6l4.6-1.8
			c2.5-1,4.3-1.9,5.6-2.6C79.4,20.9,80.2,20.4,81,19.7z"/>
		<linearGradient id="SVGID_6_" gradientUnits="userSpaceOnUse" x1="69.387" y1="-0.2761" x2="69.387" y2="27.1502">
			<stop  offset="0" style="stop-color:#E3E2E2"/>
			<stop  offset="1" style="stop-color:#FFFFFF"/>
		</linearGradient>
		<path class="st7" d="M74.5,26.5c-0.4-0.7-0.9-1.5-1.5-2.5l-2.4-4.1c-0.3-0.6-2.9-3.9-3.4-7.4c-0.2-1.2,0-3.5,1.4-5.2l-3.5-3.5
			c-2.5,2.5-3.2,6-2.8,9.2c0.5,4.5,3.6,8.3,3.8,8.7l2.4,4.1c0.7,1.2,1.3,2.2,1.7,2.9c1.3,2.4,1.5,4.2,1.5,5.1l0,0.1h4.9v-0.1
			C76.6,32.2,76.3,29.6,74.5,26.5z"/>
	</g>
</g>
</svg>
