<svg xmlns="http://www.w3.org/2000/svg" viewBox="0 0 66 20" style="background-color: white">
    <defs>
        <linearGradient id="b" x1="-9.176%" x2="90.015%" y1="-10.868%" y2="96.996%">
            <stop offset="67%" stop-color="#333"/>
            <stop offset="82%" stop-color="#1A1B1B"/>
        </linearGradient>
    </defs>
    <g fill="none" fill-rule="evenodd">
        <g fill-rule="nonzero">
            <path fill="#FF33B2" d="M43.782 2.811c1.344 0 2.419.735 2.814 1.16.5.538 1.3 1.54.947 3.476-.15.826-.71 1.535-1.287 2.052l2.001 2c1.023-.914 1.997-2.262 2.248-3.787.168-1.02.357-2.679-1.124-4.878-.94-1.396-2.816-2.287-3.606-2.518-1.676-.489-3.618-.129-3.942-.035-1.337.386-2.339.993-3.075 1.73l2.102 2.1c.573-.716 1.492-1.262 2.922-1.3"/>
            <path fill="url(#b)" d="M45.426 10.082c-.728.456-1.813.881-3.367 1.495l-2.748 1.048-.55.206c-1.502.559-4.017 1.494-5.347 3.248-1.095 1.441-1.287 3.143-1.319 3.808l-.003.074h2.943l.005-.066c.04-.497.192-1.444.76-2.192.823-1.087 2.911-1.863 4.038-2.283l.923-.344 2.744-1.054a29.46 29.46 0 0 0 3.354-1.568 7.543 7.543 0 0 0 1.37-.978l-2.003-1.999c-.278.25-.56.454-.8.605"/>
            <path fill="url(#b)" d="M37.04 7.492c.274 2.684 2.154 4.952 2.282 5.17l1.45 2.451c.406.687.76 1.292 1.018 1.754.795 1.428.908 2.53.905 3.06v.071h2.94v-.071c0-.966-.214-2.506-1.247-4.36a77.098 77.098 0 0 0-.872-1.508l-1.446-2.445c-.193-.346-1.758-2.35-2.05-4.418-.103-.74.022-2.071.822-3.07l-2.102-2.1c-1.51 1.515-1.893 3.587-1.7 5.466"/>
        </g>
    </g>
</svg>
