<?xml version="1.0" encoding="utf-8"?>
<svg version="1.1" id="레이어_1" xmlns="http://www.w3.org/2000/svg" xmlns:xlink="http://www.w3.org/1999/xlink" x="0px"
	 y="0px" viewBox="0 0 110 34" style="enable-background:new 0 0 110 34;background-color:#202020" xml:space="preserve">
<style type="text/css">
	.st5{fill:#E5007D;}
	.st6{fill:url(#SVGID_5_);}
	.st7{fill:url(#SVGID_6_);}
</style>
<g>
	<g>
		<path class="st5" d="M73.5,5.1c2.3,0,4.1,1.2,4.7,1.9c0.8,0.9,2.2,2.6,1.6,5.8c-0.3,1.4-1.2,2.6-2.2,3.4l3.4,3.4
			c1.7-1.5,3.3-3.8,3.8-6.4c0.3-1.7,0.6-4.5-1.9-8.2c-1.6-2.3-4.7-3.8-6-4.2c-2.8-0.8-6.1-0.2-6.6-0.1c-2.2,0.6-3.9,1.7-5.1,2.9
			l3.5,3.5C69.6,6.1,71.1,5.2,73.5,5.1z"/>
		<linearGradient id="SVGID_5_" gradientUnits="userSpaceOnUse" x1="74.6228" y1="21.9853" x2="61.6908" y2="27.9807">
			<stop  offset="0.2601" style="stop-color:#E3E2E2"/>
			<stop  offset="1" style="stop-color:#FFFFFF"/>
		</linearGradient>
		<path class="st6" d="M81,19.7l-3.4-3.4c-0.5,0.4-0.9,0.8-1.3,1c-1.2,0.8-3,1.5-5.6,2.5l-4.6,1.8L65.1,22c-2.5,0.9-6.7,2.5-9,5.4
			c-1.8,2.4-2.2,5.3-2.2,6.4l0,0.1h4.9l0-0.1c0.1-0.8,0.3-2.4,1.3-3.7c1.4-1.8,4.9-3.1,6.8-3.8l1.5-0.6l4.6-1.8
			c2.5-1,4.3-1.9,5.6-2.6C79.4,20.9,80.2,20.4,81,19.7z"/>
		<linearGradient id="SVGID_6_" gradientUnits="userSpaceOnUse" x1="69.387" y1="-0.2761" x2="69.387" y2="27.1502">
			<stop  offset="0" style="stop-color:#E3E2E2"/>
			<stop  offset="1" style="stop-color:#FFFFFF"/>
		</linearGradient>
		<path class="st7" d="M74.5,26.5c-0.4-0.7-0.9-1.5-1.5-2.5l-2.4-4.1c-0.3-0.6-2.9-3.9-3.4-7.4c-0.2-1.2,0-3.5,1.4-5.2l-3.5-3.5
			c-2.5,2.5-3.2,6-2.8,9.2c0.5,4.5,3.6,8.3,3.8,8.7l2.4,4.1c0.7,1.2,1.3,2.2,1.7,2.9c1.3,2.4,1.5,4.2,1.5,5.1l0,0.1h4.9v-0.1
			C76.6,32.2,76.3,29.6,74.5,26.5z"/>
	</g>
</g>
</svg>
